<?xml version="1.0" encoding="utf-8"?>
<!-- Generator: Adobe Illustrator 14.0.0, SVG Export Plug-In . SVG Version: 6.00 Build 43363)  -->
<!DOCTYPE svg PUBLIC "-//W3C//DTD SVG 1.1//EN" "http://www.w3.org/Graphics/SVG/1.1/DTD/svg11.dtd">
<svg version="1.1" id="Layer_1" xmlns="http://www.w3.org/2000/svg" xmlns:xlink="http://www.w3.org/1999/xlink" x="0px" y="0px"
	 width="27px" height="27px" viewBox="0 0 27 27" enable-background="new 0 0 27 27" xml:space="preserve">
<path fill="#EC4424" d="M13.5,0C6.043,0,0,6.044,0,13.5S6.043,27,13.5,27C20.955,27,27,20.956,27,13.5S20.955,0,13.5,0z
	 M16.527,17.231v1.316H10.7v-2.129c0-4.581,4.566-3.418,4.566-6.009c0-1.064-0.504-1.583-1.639-1.583
	c-1.036,0-1.61,0.561-1.61,1.807h-1.331c0-2.101,1.19-3.026,2.997-3.026c1.793,0,2.928,0.869,2.928,2.788
	c0,3.908-4.553,2.185-4.553,6.01v0.826H16.527z"/>
</svg>
