<?xml version="1.0" encoding="utf-8"?>
<!-- Generator: Adobe Illustrator 14.0.0, SVG Export Plug-In . SVG Version: 6.00 Build 43363)  -->
<!DOCTYPE svg PUBLIC "-//W3C//DTD SVG 1.1//EN" "http://www.w3.org/Graphics/SVG/1.1/DTD/svg11.dtd">
<svg version="1.1" id="Layer_1" xmlns="http://www.w3.org/2000/svg" xmlns:xlink="http://www.w3.org/1999/xlink" x="0px" y="0px"
	 width="27px" height="27px" viewBox="0 0 27 27" enable-background="new 0 0 27 27" xml:space="preserve">
<path fill="#EC4424" d="M13.5,0C6.043,0,0,6.044,0,13.5S6.043,27,13.5,27C20.955,27,27,20.956,27,13.5S20.955,0,13.5,0z
	 M13.418,19.204c-2.157,0-2.942-1.022-2.942-3.109h1.275c0,1.274,0.476,1.849,1.653,1.849c1.149,0,1.765-0.546,1.765-1.976
	c0-1.568-0.854-2.045-1.863-2.045h-1.106v-0.63l2.255-3.782H10.84V8.334h5.701v0.154l-2.535,4.286
	c1.708,0.196,2.563,1.148,2.563,3.18C16.569,17.972,15.519,19.204,13.418,19.204z"/>
</svg>
