<?xml version="1.0" encoding="utf-8"?>
<!-- Generator: Adobe Illustrator 14.0.0, SVG Export Plug-In . SVG Version: 6.00 Build 43363)  -->
<!DOCTYPE svg PUBLIC "-//W3C//DTD SVG 1.1//EN" "http://www.w3.org/Graphics/SVG/1.1/DTD/svg11.dtd">
<svg version="1.1" id="Layer_1" xmlns="http://www.w3.org/2000/svg" xmlns:xlink="http://www.w3.org/1999/xlink" x="0px" y="0px"
	 width="39.813px" height="39.813px" viewBox="0 0 39.813 39.813" enable-background="new 0 0 39.813 39.813" xml:space="preserve">
<g>
	<path fill="#B2BEC5" d="M5.838,5.838C9.729,1.947,14.418,0,19.906,0c5.486,0,10.176,1.947,14.068,5.838
		c3.891,3.893,5.838,8.582,5.838,14.068c0,5.488-1.947,10.178-5.838,14.068c-3.893,3.893-8.582,5.838-14.068,5.838
		c-5.488,0-10.177-1.945-14.068-5.838C1.945,30.084,0,25.395,0,19.906C0,14.42,1.945,9.73,5.838,5.838z M6.986,32.826
		c3.572,3.574,7.879,5.359,12.92,5.359c5.04,0,9.346-1.785,12.92-5.359c3.572-3.572,5.359-7.879,5.359-12.92
		c0-5.039-1.787-9.346-5.359-12.92c-3.574-3.572-7.88-5.359-12.92-5.359c-5.041,0-9.348,1.787-12.92,5.359
		c-3.574,3.574-5.359,7.881-5.359,12.92C1.627,24.947,3.413,29.254,6.986,32.826z M27.945,12.346l1.723,1.723l-12.824,12.92
		c-0.256,0.256-0.543,0.383-0.861,0.383c-0.32,0-0.607-0.127-0.861-0.383l-5.359-5.359l1.723-1.723l4.498,4.498L27.945,12.346z"/>
</g>
</svg>
