<?xml version="1.0" encoding="utf-8"?>
<!-- Generator: Adobe Illustrator 14.0.0, SVG Export Plug-In . SVG Version: 6.00 Build 43363)  -->
<!DOCTYPE svg PUBLIC "-//W3C//DTD SVG 1.1//EN" "http://www.w3.org/Graphics/SVG/1.1/DTD/svg11.dtd">
<svg version="1.1" id="Layer_1" xmlns="http://www.w3.org/2000/svg" xmlns:xlink="http://www.w3.org/1999/xlink" x="0px" y="0px"
	 width="29.25px" height="29.25px" viewBox="0 0 29.25 29.25" enable-background="new 0 0 29.25 29.25" xml:space="preserve">
<g>
	<path fill="#EE3727" d="M14.625,0c4.031,0,7.476,1.43,10.336,4.289c2.858,2.86,4.289,6.305,4.289,10.335
		c0,4.032-1.431,7.478-4.289,10.336c-2.86,2.86-6.305,4.289-10.336,4.289c-4.032,0-7.478-1.429-10.336-4.289
		C1.429,22.102,0,18.657,0,14.625c0-4.03,1.429-7.476,4.289-10.335C7.147,1.43,10.593,0,14.625,0z M21.375,20.531l-5.906-5.906
		l5.906-5.906l-0.844-0.844l-5.906,5.906L8.719,7.875L7.875,8.719l5.906,5.906l-5.906,5.906l0.844,0.844l5.906-5.906l5.906,5.906
		L21.375,20.531z"/>
</g>
</svg>
