<?xml version="1.0" encoding="utf-8"?>
<!-- Generator: Adobe Illustrator 14.0.0, SVG Export Plug-In . SVG Version: 6.00 Build 43363)  -->
<!DOCTYPE svg PUBLIC "-//W3C//DTD SVG 1.1//EN" "http://www.w3.org/Graphics/SVG/1.1/DTD/svg11.dtd">
<svg version="1.1" id="Layer_1" xmlns="http://www.w3.org/2000/svg" xmlns:xlink="http://www.w3.org/1999/xlink" x="0px" y="0px"
	 width="27px" height="27px" viewBox="0 0 27 27" enable-background="new 0 0 27 27" xml:space="preserve">
<g id="Ellipse_5_">
	<g>
		<circle fill-rule="evenodd" clip-rule="evenodd" fill="#EC4124" cx="13.5" cy="13.5" r="13.5"/>
	</g>
</g>
<g>
	<path fill="#FFFFFF" d="M15.934,8.176C16.645,8.723,17,9.479,17,10.445c0,0.565-0.173,1.084-0.52,1.559
		c-0.164,0.201-0.529,0.529-1.094,0.984l-0.574,0.383c-0.273,0.219-0.456,0.474-0.547,0.766c-0.055,0.164-0.082,0.429-0.082,0.793
		c0,0.109-0.064,0.164-0.191,0.164h-1.695c-0.128,0-0.191-0.046-0.191-0.137c0.036-0.839,0.173-1.44,0.41-1.805
		c0.127-0.182,0.319-0.383,0.574-0.602c0.255-0.219,0.483-0.392,0.684-0.52l0.301-0.191c0.2-0.164,0.337-0.301,0.41-0.41
		c0.219-0.31,0.328-0.602,0.328-0.875c0-0.401-0.101-0.729-0.301-0.984c-0.273-0.328-0.647-0.492-1.121-0.492
		c-0.456,0-0.82,0.219-1.094,0.656c-0.128,0.201-0.191,0.592-0.191,1.176H10c0-1.44,0.401-2.424,1.203-2.953
		c0.528-0.365,1.212-0.547,2.051-0.547C14.366,7.41,15.259,7.666,15.934,8.176z M13.118,16.188c0.383,0.019,0.692,0.146,0.93,0.383
		c0.237,0.237,0.346,0.547,0.328,0.93c-0.019,0.383-0.155,0.688-0.41,0.916c-0.255,0.228-0.565,0.332-0.93,0.314
		c-0.365-0.019-0.666-0.142-0.902-0.369c-0.237-0.228-0.347-0.533-0.328-0.916c0.018-0.383,0.15-0.692,0.396-0.93
		S12.753,16.169,13.118,16.188z"/>
</g>
</svg>
