<?xml version="1.0" encoding="utf-8"?>
<!-- Generator: Adobe Illustrator 18.1.1, SVG Export Plug-In . SVG Version: 6.00 Build 0)  -->
<svg version="1.1" id="Слой_1" xmlns="http://www.w3.org/2000/svg" xmlns:xlink="http://www.w3.org/1999/xlink" x="0px" y="0px"
	 width="144px" height="33px" viewBox="57 -1 144 33" enable-background="new 57 -1 144 33" xml:space="preserve">
<path id="path-1" fill="#FFFFFF" d="M194.9,6.9h-3.3v18h9.4v-2.7h-6.1V6.9L194.9,6.9z M64.2-1h17.8c2,0,3.8,0.8,5.1,2.1
	c1.3,1.3,2.1,3.1,2.1,5.2v18.1c0,2-0.8,3.8-2.1,5.2c-1.3,1.3-3.1,2.1-5.1,2.1H64.2c-2,0-3.8-0.8-5.1-2.1c-1.3-1.3-2.1-3.1-2.1-5.2
	V6.3c0-2,0.8-3.8,2.1-5.2C60.4-0.2,62.2-1,64.2-1L64.2-1z M74.2,10.9c0.3,0.6,0.7,1.2,1.2,1.6c0.5,0.4,1.2,0.5,1.9,0.7
	c2.2,0.4,2.3,0.6,0.8,2.2c-0.5,0.5-0.9,1.1-1.1,1.7c-0.2,0.6-0.1,1.4,0,2c0.3,2.3,0.1,2.4-1.8,1.4c-0.6-0.3-1.3-0.6-1.9-0.6
	c-0.7,0-1.3,0.3-1.9,0.6c-2,1-2.2,0.9-1.9-1.3c0.1-0.7,0.1-1.4-0.1-2.1c-0.2-0.6-0.7-1.2-1.1-1.7c-1.6-1.7-1.5-1.9,0.6-2.3
	c0.7-0.1,1.4-0.3,1.9-0.7c0.5-0.4,0.9-1,1.2-1.6C72.9,8.9,73.1,8.9,74.2,10.9L74.2,10.9z M81.8,1.6H64.2c-1.3,0-2.4,0.5-3.3,1.4
	c-0.8,0.9-1.4,2-1.4,3.3v18.1c0,1.3,0.5,2.5,1.4,3.3c0.8,0.9,2,1.4,3.3,1.4h17.6c1.3,0,2.4-0.5,3.3-1.4c0.8-0.9,1.4-2,1.4-3.3V6.3
	c0-1.3-0.5-2.5-1.4-3.3c-0.8-0.9-1.8-1.4-3.1-1.4H81.8z M181.9,17.5l1.6-8.4l1.3,8.4H181.9L181.9,17.5z M176.9,24.8h3.6l1.1-4.7h3.8
	l0.8,4.7h3.6l-3.9-18h-4.5L176.9,24.8L176.9,24.8z M165.9,6.9v18h9.4v-2.7h-6.1v-5.6h4.7v-2.7h-4.7V9.6h6.1V6.9H165.9L165.9,6.9z
	 M155.8,9.5h2.2c0.6,0,1.1,0.2,1.4,0.7c0.4,0.4,0.6,1.1,0.8,2.1c0.1,0.9,0.2,2.1,0.2,3.6c0,0.9,0,1.7-0.1,2.5
	c-0.1,0.8-0.2,1.4-0.4,2c-0.2,0.6-0.4,1-0.8,1.4c-0.3,0.3-0.8,0.5-1.3,0.5h-2.1V9.5L155.8,9.5z M152.4,24.8h6.1
	c0.7,0,1.4-0.1,1.9-0.4c0.6-0.2,1-0.6,1.4-1c0.4-0.4,0.7-1,1-1.5c0.3-0.6,0.4-1.2,0.6-1.9c0.1-0.7,0.2-1.4,0.3-2.1
	c0.1-0.7,0.1-1.4,0.1-2.1V15c0-1.3-0.1-2.4-0.3-3.4c-0.2-0.9-0.5-1.7-0.8-2.3c-0.3-0.6-0.7-1.1-1.2-1.5c-0.5-0.4-1-0.6-1.5-0.8
	c-0.5-0.1-1.1-0.2-1.7-0.2h-5.9V24.8L152.4,24.8z M144.6,9.3c0.5,0,0.9,0.1,1.2,0.4c0.3,0.2,0.6,0.6,0.8,1c0.2,0.5,0.3,1,0.3,1.6
	v7.3c0,0.9-0.2,1.7-0.6,2.2c-0.4,0.5-0.9,0.7-1.7,0.7c-0.8,0-1.4-0.3-1.8-0.7c-0.4-0.5-0.6-1.2-0.6-2.1v-7.3c0-1,0.2-1.7,0.6-2.2
	C143.2,9.6,143.8,9.3,144.6,9.3L144.6,9.3z M138.9,12.7v6.5c0,1.1,0.1,2.1,0.4,2.9c0.3,0.8,0.7,1.4,1.2,1.9c0.5,0.5,1.1,0.8,1.8,1
	c0.7,0.2,1.5,0.3,2.3,0.3c0.8,0,1.6-0.1,2.3-0.3c0.7-0.2,1.3-0.5,1.8-1c0.5-0.5,0.9-1.1,1.2-1.9c0.3-0.8,0.4-1.7,0.4-2.9v-6.5
	c0-1.1-0.1-2.1-0.4-2.9c-0.3-0.8-0.7-1.4-1.2-1.9c-0.5-0.5-1.1-0.8-1.8-1c-0.7-0.2-1.5-0.3-2.3-0.3c-0.8,0-1.6,0.1-2.3,0.3
	c-0.7,0.2-1.3,0.6-1.8,1.1c-0.5,0.5-0.9,1.1-1.2,1.9C139,10.6,138.9,11.6,138.9,12.7L138.9,12.7z M129.4,9.5h1.7
	c0.8,0,1.5,0.2,1.9,0.7c0.4,0.5,0.6,1.1,0.6,2c0,0.9-0.2,1.5-0.6,2c-0.4,0.5-1,0.7-1.9,0.7h-1.7V9.5L129.4,9.5z M129.4,17.5h2.9
	c0.7,0,1.4-0.1,1.9-0.4c0.6-0.3,1.1-0.7,1.5-1.2c0.4-0.5,0.7-1.1,0.9-1.7c0.2-0.7,0.3-1.3,0.3-2.1c0-0.7-0.1-1.4-0.3-2
	c-0.2-0.6-0.5-1.2-0.9-1.7c-0.4-0.5-0.9-0.9-1.5-1.1c-0.6-0.3-1.2-0.4-1.9-0.4H126v18h3.3V17.5L129.4,17.5z M116.6,9.5h1.7
	c0.8,0,1.5,0.2,1.9,0.7c0.4,0.5,0.6,1.1,0.6,2c0,0.9-0.2,1.5-0.6,2c-0.4,0.5-1,0.7-1.9,0.7h-1.7V9.5L116.6,9.5z M116.6,17.5h2.9
	c0.7,0,1.4-0.1,1.9-0.4c0.6-0.3,1.1-0.7,1.5-1.2c0.4-0.5,0.7-1.1,0.9-1.7c0.2-0.7,0.3-1.3,0.3-2.1c0-0.7-0.1-1.4-0.3-2
	c-0.2-0.6-0.5-1.2-0.9-1.7s-0.9-0.9-1.5-1.1c-0.6-0.3-1.2-0.4-1.9-0.4h-6.3v18h3.3V17.5L116.6,17.5z M103.2,17.5l1.6-8.4l1.3,8.4
	H103.2L103.2,17.5z M98.1,24.8h3.6l1.1-4.7h3.8l0.8,4.7h3.6l-3.9-18h-4.5L98.1,24.8L98.1,24.8z"/>
</svg>
