<svg version="1.1" xmlns="http://www.w3.org/2000/svg" xmlns:xlink="http://www.w3.org/1999/xlink" x="0px" y="0px"
	 width="27px" height="27px" viewBox="0 0 27 27" enable-background="new 0 0 27 27" xml:space="preserve">
    <defs>
        <style>
            g {
            display: none;
            }
            g:target {
            display: inline;
            }
        </style>
    </defs>
    <g id="1-red">
        <path fill="#EC4424"
              d="M13.5 0C6.043 0 0 6.044 0 13.5S6.043 27 13.5 27C20.956 27 27 20.956 27 13.5S20.956 0 13.5 0zm2.585 18.947h-4.75v-1.134h1.752V9.325h-1.373v-1.19h2.704v9.68h1.667v1.132z"/>
    </g>
    <g id="1-white">
        <path fill="#FFF"
              d="M13.5 0C6.043 0 0 6.044 0 13.5S6.043 27 13.5 27C20.956 27 27 20.956 27 13.5S20.956 0 13.5 0zm2.585 18.947h-4.75v-1.134h1.752V9.325h-1.373v-1.19h2.704v9.68h1.667v1.132z"/>
    </g>
    <g id="2-red">
        <path fill="#EC4424"
              d="M13.5 0C6.043 0 0 6.044 0 13.5S6.043 27 13.5 27C20.955 27 27 20.956 27 13.5S20.955 0 13.5 0zm3.027 17.23v1.317H10.7v-2.13c0-4.58 4.566-3.417 4.566-6.008 0-1.065-.504-1.584-1.64-1.584-1.035 0-1.61.56-1.61 1.807h-1.33c0-2.1 1.19-3.026 2.997-3.026 1.793 0 2.928.87 2.928 2.788 0 3.908-4.552 2.185-4.552 6.01v.826h4.47z"/>
    </g>
    <g id="2-white">
        <path fill="#FFF"
              d="M13.5 0C6.043 0 0 6.044 0 13.5S6.043 27 13.5 27C20.955 27 27 20.956 27 13.5S20.955 0 13.5 0zm3.027 17.23v1.317H10.7v-2.13c0-4.58 4.566-3.417 4.566-6.008 0-1.065-.504-1.584-1.64-1.584-1.035 0-1.61.56-1.61 1.807h-1.33c0-2.1 1.19-3.026 2.997-3.026 1.793 0 2.928.87 2.928 2.788 0 3.908-4.552 2.185-4.552 6.01v.826h4.47z"/>
    </g>
    <g id="3-red">
        <path fill="#EC4424"
              d="M13.5 0C6.043 0 0 6.044 0 13.5S6.043 27 13.5 27C20.955 27 27 20.956 27 13.5S20.955 0 13.5 0zm-.082 19.204c-2.157 0-2.942-1.022-2.942-3.11h1.275c0 1.275.477 1.85 1.654 1.85 1.15 0 1.765-.546 1.765-1.976 0-1.568-.855-2.045-1.864-2.045H12.2v-.63l2.255-3.782H10.84V8.335h5.7v.154l-2.534 4.286c1.708.196 2.563 1.148 2.563 3.18 0 2.018-1.05 3.25-3.152 3.25z"/>
    </g>
    <g id="3-white">
        <path fill="#FFF"
              d="M13.5 0C6.043 0 0 6.044 0 13.5S6.043 27 13.5 27C20.955 27 27 20.956 27 13.5S20.955 0 13.5 0zm-.082 19.204c-2.157 0-2.942-1.022-2.942-3.11h1.275c0 1.275.477 1.85 1.654 1.85 1.15 0 1.765-.546 1.765-1.976 0-1.568-.855-2.045-1.864-2.045H12.2v-.63l2.255-3.782H10.84V8.335h5.7v.154l-2.534 4.286c1.708.196 2.563 1.148 2.563 3.18 0 2.018-1.05 3.25-3.152 3.25z"/>
    </g>
    <g id="user-red">
        <path fill="#EC4124"
              d="M13.5 0C6.044 0 0 6.044 0 13.5S6.044 27 13.5 27 27 20.956 27 13.5 20.956 0 13.5 0zm-.312 20.803H6c0-.958.793-1.736 2.38-2.336.24-.09.6-.172 1.08-.247.478-.074.763-.127.853-.157.51-.15.81-.284.898-.404l.05-1.85c-.18-.3-.31-.57-.4-.81l-.31-1.44c-.21 0-.345-.18-.404-.54-.03-.18-.083-.39-.157-.63-.076-.24-.113-.435-.113-.585 0-.12.016-.217.046-.29.03-.076.076-.128.137-.158h.043c-.12-.39-.193-1.02-.223-1.89-.03-.81.254-1.52.854-2.133.6-.612 1.42-.92 2.47-.92 1.05 0 1.87.308 2.47.92.6.616.885 1.327.856 2.136l-.23 1.89c.15.03.225.18.225.45 0 .06-.09.48-.27 1.26-.03.15-.077.27-.137.36-.06.09-.12.15-.18.18h-.09c-.12.69-.225 1.154-.314 1.394l-.405.81c-.06 1.107-.05 1.722.04 1.84.09.12.39.256.896.405.09.03.373.08.853.152s.84.157 1.08.247c1.585.6 2.38 1.38 2.38 2.337h-7.19z"/>
    </g>
    <g id="user-white">
        <path fill="#FFF"
              d="M13.5 0C6.044 0 0 6.044 0 13.5S6.044 27 13.5 27 27 20.956 27 13.5 20.956 0 13.5 0zm-.312 20.803H6c0-.958.793-1.736 2.38-2.336.24-.09.6-.172 1.08-.247.478-.074.763-.127.853-.157.51-.15.81-.284.898-.404l.05-1.85c-.18-.3-.31-.57-.4-.81l-.31-1.44c-.21 0-.345-.18-.404-.54-.03-.18-.083-.39-.157-.63-.076-.24-.113-.435-.113-.585 0-.12.016-.217.046-.29.03-.076.076-.128.137-.158h.043c-.12-.39-.193-1.02-.223-1.89-.03-.81.254-1.52.854-2.133.6-.612 1.42-.92 2.47-.92 1.05 0 1.87.308 2.47.92.6.616.885 1.327.856 2.136l-.23 1.89c.15.03.225.18.225.45 0 .06-.09.48-.27 1.26-.03.15-.077.27-.137.36-.06.09-.12.15-.18.18h-.09c-.12.69-.225 1.154-.314 1.394l-.405.81c-.06 1.107-.05 1.722.04 1.84.09.12.39.256.896.405.09.03.373.08.853.152s.84.157 1.08.247c1.585.6 2.38 1.38 2.38 2.337h-7.19z"/>
    </g>
    <g id="check-red">
        <path fill="#EB4124"
              d="M13.5 0C6.044 0 0 6.044 0 13.5S6.044 27 13.5 27 27 20.956 27 13.5 20.956 0 13.5 0zm5.63 9.65l-7.296 9.375c-.117.117-.205.176-.264.176-.098 0-.195-.048-.293-.145l-4.13-3.985-.09-.088c-.037-.08-.057-.136-.057-.175 0-.02.02-.068.06-.146l.06-.058c.545-.586.977-1.036 1.288-1.35.117-.116.195-.175.234-.175.078 0 .176.06.293.176l2.344 2.285 5.858-7.53c.038-.038.098-.058.176-.058.06 0 .127.02.205.06l1.61 1.288c.038.078.06.137.06.176s-.022.098-.06.176z"/>
    </g>
    <g id="check-white">
        <path fill="#FFF"
              d="M13.5 0C6.044 0 0 6.044 0 13.5S6.044 27 13.5 27 27 20.956 27 13.5 20.956 0 13.5 0zm5.63 9.65l-7.296 9.375c-.117.117-.205.176-.264.176-.098 0-.195-.048-.293-.145l-4.13-3.985-.09-.088c-.037-.08-.057-.136-.057-.175 0-.02.02-.068.06-.146l.06-.058c.545-.586.977-1.036 1.288-1.35.117-.116.195-.175.234-.175.078 0 .176.06.293.176l2.344 2.285 5.858-7.53c.038-.038.098-.058.176-.058.06 0 .127.02.205.06l1.61 1.288c.038.078.06.137.06.176s-.022.098-.06.176z"/>
    </g>
    <g id="check-sign">
        <path fill="#B2BEC5"
              d="M5.838 5.838C9.728 1.948 14.418 0 19.906 0c5.486 0 10.176 1.947 14.068 5.838 3.89 3.893 5.838 8.582 5.838 14.068 0 5.488-1.947 10.178-5.838 14.068-3.893 3.893-8.582 5.838-14.068 5.838-5.488 0-10.177-1.945-14.068-5.838C1.945 30.084 0 25.394 0 19.906 0 14.42 1.945 9.73 5.838 5.838zm1.148 26.988c3.572 3.574 7.88 5.36 12.92 5.36s9.346-1.786 12.92-5.36c3.572-3.572 5.36-7.88 5.36-12.92s-1.788-9.346-5.36-12.92c-3.574-3.572-7.88-5.36-12.92-5.36s-9.348 1.788-12.92 5.36c-3.574 3.574-5.36 7.88-5.36 12.92s1.787 9.348 5.36 12.92zm20.96-20.48l1.722 1.723-12.824 12.92c-.256.255-.543.382-.86.382-.32 0-.608-.127-.862-.383l-5.36-5.36 1.724-1.723 4.498 4.498 11.96-12.06z"/>
    </g>
    <g id="circle-red">
        <circle fill-rule="evenodd" clip-rule="evenodd" fill="#EC4124" cx="13.5" cy="13.5" r="13.5"/>
    </g>
    <g id="circle-white">
        <circle fill-rule="evenodd" clip-rule="evenodd" fill="#FFF" cx="13.5" cy="13.5" r="13.5"/>
    </g>
    <g id="close">
        <path fill="#EE3727"
              d="M14.625 0c4.03 0 7.476 1.43 10.336 4.29 2.86 2.86 4.29 6.304 4.29 10.334 0 4.032-1.43 7.478-4.29 10.336-2.86 2.86-6.303 4.29-10.334 4.29-4.032 0-7.478-1.43-10.336-4.29C1.43 22.102 0 18.657 0 14.625 0 10.595 1.43 7.15 4.29 4.29 7.146 1.43 10.592 0 14.624 0zm0 27.984c3.75 0 6.914-1.288 9.492-3.867 2.577-2.577 3.867-5.74 3.867-9.492 0-3.75-1.29-6.913-3.867-9.492-2.58-2.578-5.743-3.867-9.492-3.867-3.75 0-6.915 1.29-9.492 3.867-2.58 2.58-3.867 5.743-3.867 9.492 0 3.75 1.29 6.915 3.867 9.492 2.577 2.58 5.74 3.867 9.492 3.867zm5.906-20.11l.846.845-5.906 5.904 5.905 5.906-.844.845-5.904-5.906-5.906 5.904-.845-.844 5.906-5.905L7.877 8.72l.844-.845 5.905 5.906 5.906-5.904z"/>
    </g>
    <g id="close-hover">
        <path fill="#EE3727"
              d="M14.625 0c4.03 0 7.476 1.43 10.336 4.29 2.86 2.86 4.29 6.304 4.29 10.334 0 4.032-1.43 7.478-4.29 10.336-2.86 2.86-6.303 4.29-10.334 4.29-4.032 0-7.478-1.43-10.336-4.29C1.43 22.102 0 18.657 0 14.625 0 10.595 1.43 7.15 4.29 4.29 7.146 1.43 10.592 0 14.624 0zm6.75 20.53l-5.906-5.905 5.904-5.906-.844-.846-5.905 5.906L8.72 7.876l-.845.844 5.906 5.905-5.904 5.906.844.846 5.905-5.906 5.906 5.905.846-.844z"/>
    </g>
    <g id="faq">
        <circle fill-rule="evenodd" clip-rule="evenodd" fill="#EC4124" cx="13.5" cy="13.5" r="13.5"/>
        <path fill="#FFF"
              d="M15.934 8.176c.71.547 1.066 1.303 1.066 2.27 0 .564-.173 1.083-.52 1.558-.164.2-.53.53-1.094.984l-.574.383c-.273.22-.456.478-.547.77-.055.164-.082.43-.082.793 0 .11-.064.165-.19.165h-1.696c-.128 0-.19-.046-.19-.137.035-.84.172-1.44.41-1.804.126-.182.318-.383.573-.602.255-.22.483-.39.684-.52l.3-.19c.2-.164.338-.3.41-.41.22-.31.33-.602.33-.875 0-.4-.102-.73-.302-.985-.273-.327-.647-.49-1.12-.49-.457 0-.82.22-1.095.655-.128.2-.19.59-.19 1.175H10c0-1.44.4-2.423 1.203-2.952.528-.365 1.212-.547 2.05-.547 1.113 0 2.006.257 2.68.767zm-2.816 8.012c.383.02.692.146.93.383.237.24.346.55.328.93-.02.387-.155.69-.41.92-.255.228-.565.33-.93.314-.365-.018-.666-.14-.902-.368-.237-.228-.347-.533-.328-.916.018-.384.15-.693.396-.93s.55-.348.916-.33z"/>
    </g>
    <g id="info-sign">
        <path fill="#B2BEC6"
              d="M5.838 5.838C9.728 1.948 14.418 0 19.906 0c5.486 0 10.176 1.947 14.068 5.838 3.89 3.893 5.838 8.582 5.838 14.068 0 5.488-1.947 10.178-5.838 14.068-3.893 3.893-8.582 5.838-14.068 5.838-5.488 0-10.177-1.945-14.068-5.838C1.945 30.084 0 25.394 0 19.906 0 14.42 1.945 9.73 5.838 5.838zm1.148 26.988c3.572 3.574 7.88 5.36 12.92 5.36s9.346-1.786 12.92-5.36c3.572-3.572 5.36-7.88 5.36-12.92s-1.788-9.346-5.36-12.92c-3.574-3.572-7.88-5.36-12.92-5.36s-9.348 1.788-12.92 5.36c-3.574 3.574-5.36 7.88-5.36 12.92s1.787 9.348 5.36 12.92zm14.452-4.498h1.53v.766h-6.124v-.766h1.53V16.844h-1.53v-.766h4.594v12.25zM19.523 13.78c-1.277 0-1.914-.636-1.914-1.913 0-1.275.635-1.914 1.912-1.914 1.275 0 1.914.64 1.914 1.914 0 1.278-.638 1.914-1.914 1.914z"/>
    </g>
    <g id="website">
        <circle fill-rule="evenodd" clip-rule="evenodd" fill="#EC4124" cx="13.5" cy="13.5" r="13.5"/>
        <path fill-rule="evenodd" clip-rule="evenodd" fill="#FFF"
              d="M20.172 6.982C19.56 6.376 18.712 6 17.782 6H9.384c-.93 0-1.777.376-2.39.982C6.38 7.59 6 8.426 6 9.347v8.307c0 .92.38 1.758.994 2.364.612.606 1.46.982 2.39.982h8.398c.932 0 1.777-.376 2.39-.982s.993-1.443.993-2.364V9.347c0-.92-.38-1.758-.993-2.365zm-.19 10.67c0 .6-.25 1.142-.647 1.536s-.95.64-1.553.64H9.384c-.604 0-1.153-.245-1.552-.64-.4-.395-.646-.938-.646-1.535V9.347c0-.598.247-1.14.646-1.535.398-.395.948-.64 1.552-.64h8.398c.604 0 1.154.245 1.553.64s.646.938.646 1.535v8.306zm-4.4-5.145c-.308-.058-.636-.12-.888-.305-.256-.186-.434-.478-.584-.752-.494-.896-.585-.892-1.096.034-.15.273-.313.562-.568.743-.256.183-.593.26-.902.317-1.015.188-1.038.275-.307 1.042.216.226.443.468.54.764.096.297.066.638.025.947-.133 1.012-.057 1.062.907.61.28-.134.58-.273.9-.272.31.002.63.135.92.27.93.437 1 .38.86-.666-.04-.31-.08-.64.02-.938.1-.297.323-.555.54-.782.71-.74.676-.825-.37-1.02z"/>
    </g>
</svg>