<?xml version="1.0" encoding="utf-8"?>
<!-- Generator: Adobe Illustrator 14.0.0, SVG Export Plug-In . SVG Version: 6.00 Build 43363)  -->
<!DOCTYPE svg PUBLIC "-//W3C//DTD SVG 1.1//EN" "http://www.w3.org/Graphics/SVG/1.1/DTD/svg11.dtd">
<svg version="1.1" id="Layer_1" xmlns="http://www.w3.org/2000/svg" xmlns:xlink="http://www.w3.org/1999/xlink" x="0px" y="0px"
	 width="27px" height="27px" viewBox="0 0 27 27" enable-background="new 0 0 27 27" xml:space="preserve">
<path fill="#EC4124" d="M13.5,0C6.044,0,0,6.044,0,13.5S6.044,27,13.5,27S27,20.956,27,13.5S20.956,0,13.5,0z M13.188,20.803H6
	c0-0.958,0.793-1.736,2.381-2.336c0.239-0.09,0.599-0.172,1.078-0.247c0.479-0.074,0.764-0.127,0.854-0.157
	c0.509-0.149,0.809-0.284,0.898-0.404l0.045-1.842c-0.18-0.299-0.314-0.568-0.404-0.809l-0.314-1.438
	c-0.21,0-0.345-0.18-0.404-0.539c-0.03-0.18-0.083-0.389-0.157-0.629c-0.075-0.239-0.112-0.434-0.112-0.584
	c0-0.12,0.015-0.217,0.045-0.292c0.029-0.075,0.074-0.127,0.135-0.157h0.045c-0.12-0.389-0.195-1.018-0.225-1.887
	c-0.03-0.809,0.254-1.52,0.854-2.134c0.599-0.614,1.422-0.921,2.471-0.921c1.048,0,1.871,0.307,2.471,0.921
	c0.599,0.614,0.883,1.325,0.854,2.134l-0.225,1.887c0.149,0.03,0.225,0.18,0.225,0.449c0,0.06-0.09,0.479-0.27,1.258
	c-0.03,0.15-0.075,0.27-0.135,0.359c-0.061,0.09-0.12,0.15-0.18,0.18h-0.09c-0.12,0.689-0.225,1.153-0.314,1.393l-0.404,0.809
	c-0.061,1.108-0.045,1.723,0.045,1.842c0.09,0.12,0.389,0.255,0.898,0.404c0.09,0.03,0.374,0.083,0.854,0.157
	c0.479,0.075,0.838,0.157,1.078,0.247c1.587,0.6,2.381,1.378,2.381,2.336H13.188z"/>
<rect x="-1.665" y="-38.611" display="none" fill="#FFFFFF" width="52.874" height="19.212"/>
<rect x="34.46" y="-50.434" display="none" fill="#EC4124" width="39.737" height="17.734"/>
</svg>
