<?xml version="1.0" encoding="utf-8"?>
<!-- Generator: Adobe Illustrator 14.0.0, SVG Export Plug-In . SVG Version: 6.00 Build 43363)  -->
<!DOCTYPE svg PUBLIC "-//W3C//DTD SVG 1.1//EN" "http://www.w3.org/Graphics/SVG/1.1/DTD/svg11.dtd">
<svg version="1.1" id="Layer_1" xmlns="http://www.w3.org/2000/svg" xmlns:xlink="http://www.w3.org/1999/xlink" x="0px" y="0px"
	 width="27px" height="27px" viewBox="0 0 27 27" enable-background="new 0 0 27 27" xml:space="preserve">
<g id="Ellipse_4_">
	<g>
		<circle fill-rule="evenodd" clip-rule="evenodd" fill="#EC4124" cx="13.5" cy="13.5" r="13.5"/>
	</g>
</g>
<g id="Composite_Path">
	<g>
		<path fill-rule="evenodd" clip-rule="evenodd" fill="#FFFFFF" d="M20.172,6.982C19.559,6.376,18.713,6,17.782,6H9.384
			c-0.931,0-1.777,0.376-2.39,0.982C6.381,7.589,6,8.426,6,9.347v8.307c0,0.921,0.381,1.758,0.994,2.364
			C7.606,20.624,8.453,21,9.384,21h8.398c0.932,0,1.777-0.376,2.391-0.982s0.992-1.443,0.992-2.364V9.347
			C21.165,8.426,20.786,7.589,20.172,6.982z M19.981,17.653c0,0.598-0.248,1.141-0.646,1.535s-0.949,0.639-1.553,0.639H9.384
			c-0.604,0-1.153-0.244-1.552-0.639c-0.399-0.395-0.646-0.938-0.646-1.535V9.347c0-0.598,0.247-1.141,0.646-1.535
			c0.398-0.395,0.948-0.64,1.552-0.64h8.398c0.604,0,1.154,0.245,1.553,0.64s0.646,0.938,0.646,1.535V17.653z M15.583,12.507
			c-0.309-0.058-0.637-0.121-0.889-0.305c-0.256-0.186-0.434-0.478-0.584-0.752c-0.494-0.896-0.585-0.892-1.096,0.034
			c-0.15,0.273-0.313,0.562-0.568,0.743c-0.256,0.183-0.593,0.26-0.902,0.317c-1.015,0.188-1.038,0.275-0.307,1.042
			c0.216,0.226,0.443,0.468,0.539,0.764c0.097,0.297,0.067,0.638,0.026,0.947c-0.133,1.012-0.057,1.062,0.907,0.609
			c0.283-0.133,0.587-0.272,0.9-0.271c0.316,0.002,0.635,0.135,0.92,0.269c0.932,0.438,1.002,0.381,0.865-0.665
			c-0.041-0.308-0.08-0.636,0.018-0.931c0.1-0.297,0.326-0.555,0.543-0.782C16.665,12.785,16.631,12.7,15.583,12.507z"/>
	</g>
</g>
</svg>
